# xmcd
#
# Track frame offsets:
#	150
#	19931
#	38119
#	54578
#	70400
#	86661
#	103149
#	121756
#	138656
#	150663
#	168101
#	184682
#	201736
#	217124
#	234939
#	250121
#	273056
#	288440
#	305378
#	320105
#
# Disc length: 4478 seconds
#
# Revision: 0
# Processed by: cddbd v1.5.2PL0 Copyright (c) Steve Scherf et al.
# Submitted via: SynApp - FreeCDDB Version: 2.4
#
DISCID=26117c14
DTITLE=Demis Roussos - Insel der Zärtlichkeit
DYEAR=2007
DGENRE=Other
TTITLE0=Demis Roussos - Romantica
TTITLE1=Demis Roussos - Schön wie Mona Lisa
TTITLE2=Demis Roussos - Kyrila
TTITLE3=Demis Roussos - We shall Dance
TTITLE4=Demis Roussos - Die Nächte von Athen
TTITLE5=Demis Roussos - Velvet Mornings
TTITLE6=Demis Roussos - Vagabund der Liebe
TTITLE7=Demis Roussos - My only fascination
TTITLE8=Demis Roussos - Mein Leben ist ein Souvenir
TTITLE9=Demis Roussos - Goodbye, My Love, Goodbye
TTITLE10=Demis Roussos - Forever and ever
TTITLE11=Demis Roussos - Manuela
TTITLE12=Demis Roussos - Schönes Mädchen aus Arcadia
TTITLE13=Demis Roussos - My Friend the Wind
TTITLE14=Demis Roussos - Komm in den Garten der tausend Melodien
TTITLE15=Demis Roussos - Kinder der ganzen Erde
TTITLE16=Demis Roussos - Let it be me
TTITLE17=Demis Roussos - Die Bouzouki, die Nacht und der Wein
TTITLE18=Demis Roussos - Rain and Tears
TTITLE19=Demis Roussos - Auf Wiedersehn
EXTD=
EXTT0=
EXTT1=
EXTT2=
EXTT3=
EXTT4=
EXTT5=
EXTT6=
EXTT7=
EXTT8=
EXTT9=
EXTT10=
EXTT11=
EXTT12=
EXTT13=
EXTT14=
EXTT15=
EXTT16=
EXTT17=
EXTT18=
EXTT19=
PLAYORDER=
